<svg width="237" height="59" viewBox="0 0 237 59" fill="none" xmlns="http://www.w3.org/2000/svg">
<g filter="url(#filter0_d_18_90)">
<path d="M61.9195 35.08C61.9195 36.76 61.5061 38.2267 60.6795 39.48C59.8528 40.7333 58.6528 41.7067 57.0795 42.4C55.5328 43.0667 53.6395 43.4 51.3995 43.4C50.4128 43.4 49.4395 43.3333 48.4795 43.2C47.5461 43.0667 46.6395 42.88 45.7595 42.64C44.9061 42.3733 44.0928 42.0533 43.3195 41.68V36.04C44.6795 36.6267 46.0795 37.1733 47.5195 37.68C48.9861 38.16 50.4395 38.4 51.8795 38.4C52.8661 38.4 53.6528 38.2667 54.2395 38C54.8528 37.7333 55.2928 37.3733 55.5595 36.92C55.8528 36.4667 55.9995 35.9467 55.9995 35.36C55.9995 34.64 55.7461 34.0267 55.2395 33.52C54.7595 33.0133 54.1061 32.5467 53.2795 32.12C52.4528 31.6667 51.5061 31.1867 50.4395 30.68C49.7728 30.36 49.0528 29.9867 48.2795 29.56C47.5061 29.1067 46.7595 28.56 46.0395 27.92C45.3461 27.2533 44.7728 26.4533 44.3195 25.52C43.8661 24.5867 43.6395 23.4667 43.6395 22.16C43.6395 20.4533 44.0261 19 44.7995 17.8C45.5995 16.5733 46.7195 15.64 48.1595 15C49.6261 14.36 51.3461 14.04 53.3195 14.04C54.8128 14.04 56.2261 14.2133 57.5595 14.56C58.9195 14.9067 60.3328 15.4 61.7995 16.04L59.8395 20.76C58.5328 20.2267 57.3595 19.8133 56.3195 19.52C55.2795 19.2267 54.2128 19.08 53.1195 19.08C52.3728 19.08 51.7328 19.2 51.1995 19.44C50.6661 19.68 50.2528 20.0133 49.9595 20.44C49.6928 20.8667 49.5595 21.3733 49.5595 21.96C49.5595 22.6267 49.7595 23.2 50.1595 23.68C50.5595 24.1333 51.1595 24.5733 51.9595 25C52.7595 25.4267 53.7595 25.9333 54.9595 26.52C56.4261 27.2133 57.6661 27.9333 58.6795 28.68C59.7195 29.4267 60.5195 30.3067 61.0795 31.32C61.6395 32.3333 61.9195 33.5867 61.9195 35.08ZM92.2707 20.76C94.7507 20.76 96.6174 21.4 97.8707 22.68C99.1507 23.9333 99.7907 25.96 99.7907 28.76V43H93.8307V30.24C93.8307 28.6667 93.564 27.4933 93.0307 26.72C92.4974 25.92 91.6707 25.52 90.5507 25.52C88.9774 25.52 87.8574 26.08 87.1907 27.2C86.524 28.32 86.1907 29.9333 86.1907 32.04V43H80.2307V30.24C80.2307 29.2 80.1107 28.3333 79.8707 27.64C79.6307 26.9467 79.2707 26.4267 78.7907 26.08C78.3107 25.7067 77.6974 25.52 76.9507 25.52C75.8574 25.52 74.9907 25.8 74.3507 26.36C73.7107 26.92 73.2574 27.7333 72.9907 28.8C72.724 29.8667 72.5907 31.1733 72.5907 32.72V43H66.6307V21.16H71.1907L71.9907 23.96H72.3107C72.764 23.2133 73.324 22.6133 73.9907 22.16C74.6574 21.68 75.3907 21.3333 76.1907 21.12C77.0174 20.88 77.844 20.76 78.6707 20.76C80.2707 20.76 81.6307 21.0267 82.7507 21.56C83.8707 22.0667 84.724 22.8667 85.3107 23.96H85.8307C86.4974 22.84 87.4174 22.0267 88.5907 21.52C89.7907 21.0133 91.0174 20.76 92.2707 20.76ZM114.888 20.72C117.821 20.72 120.061 21.36 121.608 22.64C123.181 23.8933 123.968 25.8267 123.968 28.44V43H119.808L118.648 40.04H118.488C117.874 40.8133 117.234 41.4533 116.568 41.96C115.928 42.4667 115.181 42.8267 114.328 43.04C113.501 43.28 112.474 43.4 111.248 43.4C109.968 43.4 108.808 43.16 107.768 42.68C106.754 42.1733 105.954 41.4133 105.368 40.4C104.781 39.36 104.488 38.0533 104.488 36.48C104.488 34.16 105.301 32.4533 106.928 31.36C108.554 30.24 110.994 29.6267 114.248 29.52L118.048 29.4V28.44C118.048 27.2933 117.741 26.4533 117.128 25.92C116.541 25.3867 115.714 25.12 114.648 25.12C113.581 25.12 112.541 25.28 111.528 25.6C110.514 25.8933 109.501 26.2667 108.488 26.72L106.528 22.68C107.701 22.0667 108.994 21.5867 110.408 21.24C111.848 20.8933 113.341 20.72 114.888 20.72ZM115.728 32.96C113.808 33.0133 112.474 33.36 111.728 34C110.981 34.64 110.608 35.48 110.608 36.52C110.608 37.4267 110.874 38.08 111.408 38.48C111.941 38.8533 112.634 39.04 113.488 39.04C114.768 39.04 115.848 38.6667 116.728 37.92C117.608 37.1467 118.048 36.0667 118.048 34.68V32.88L115.728 32.96ZM142.268 20.76C142.562 20.76 142.908 20.7733 143.308 20.8C143.708 20.8267 144.028 20.8667 144.268 20.92L143.828 26.52C143.642 26.4667 143.362 26.4267 142.988 26.4C142.642 26.3467 142.335 26.32 142.068 26.32C141.295 26.32 140.548 26.4267 139.828 26.64C139.108 26.8267 138.455 27.1333 137.868 27.56C137.308 27.9867 136.855 28.56 136.508 29.28C136.188 29.9733 136.028 30.84 136.028 31.88V43H130.068V21.16H134.588L135.468 24.84H135.748C136.175 24.0933 136.708 23.4133 137.348 22.8C137.988 22.1867 138.722 21.6933 139.548 21.32C140.402 20.9467 141.308 20.76 142.268 20.76ZM157.432 38.64C158.099 38.64 158.739 38.5733 159.352 38.44C159.966 38.3067 160.579 38.1467 161.192 37.96V42.4C160.552 42.6667 159.752 42.8933 158.792 43.08C157.859 43.2933 156.832 43.4 155.712 43.4C154.406 43.4 153.232 43.1867 152.192 42.76C151.179 42.3333 150.366 41.6 149.752 40.56C149.166 39.4933 148.872 38.0267 148.872 36.16V25.64H146.032V23.12L149.312 21.12L151.032 16.52H154.832V21.16H160.952V25.64H154.832V36.16C154.832 36.9867 155.072 37.6133 155.552 38.04C156.032 38.44 156.659 38.64 157.432 38.64ZM182.496 43H166.056V14.44H182.496V19.4H172.096V25.68H181.776V30.64H172.096V38H182.496V43ZM194.879 43.4C192.452 43.4 190.465 42.4533 188.919 40.56C187.399 38.64 186.639 35.8267 186.639 32.12C186.639 28.3867 187.412 25.56 188.959 23.64C190.505 21.72 192.532 20.76 195.039 20.76C196.079 20.76 196.999 20.9067 197.799 21.2C198.599 21.4667 199.279 21.84 199.839 22.32C200.425 22.8 200.919 23.3467 201.319 23.96H201.519C201.439 23.5333 201.345 22.92 201.239 22.12C201.132 21.2933 201.079 20.4533 201.079 19.6V12.6H207.039V43H202.479L201.319 40.16H201.079C200.705 40.7467 200.225 41.2933 199.639 41.8C199.079 42.28 198.412 42.6667 197.639 42.96C196.865 43.2533 195.945 43.4 194.879 43.4ZM196.959 38.64C198.612 38.64 199.772 38.16 200.439 37.2C201.105 36.2133 201.452 34.7467 201.479 32.8V32.16C201.479 30.0267 201.145 28.4 200.479 27.28C199.839 26.16 198.639 25.6 196.879 25.6C195.572 25.6 194.545 26.1733 193.799 27.32C193.052 28.44 192.679 30.0667 192.679 32.2C192.679 34.3333 193.052 35.9467 193.799 37.04C194.545 38.1067 195.599 38.64 196.959 38.64ZM233.311 21.16V43H228.751L227.951 40.2H227.631C227.178 40.9467 226.591 41.56 225.871 42.04C225.178 42.4933 224.405 42.8267 223.551 43.04C222.698 43.28 221.818 43.4 220.911 43.4C219.365 43.4 218.005 43.12 216.831 42.56C215.658 42 214.751 41.1333 214.111 39.96C213.471 38.7867 213.151 37.2667 213.151 35.4V21.16H219.111V33.92C219.111 35.4667 219.391 36.64 219.951 37.44C220.511 38.24 221.405 38.64 222.631 38.64C223.858 38.64 224.805 38.36 225.471 37.8C226.165 37.24 226.645 36.4267 226.911 35.36C227.205 34.2933 227.351 32.9867 227.351 31.44V21.16H233.311Z" fill="white"/>
</g>
<g filter="url(#filter1_d_18_90)">
<path d="M30.0555 39.6H18.6637V21.6C18.6637 19.6118 20.5762 18 22.9356 18H30.0555C30.8419 18 31.4795 18.5373 31.4795 19.2V38.4C31.4795 39.0628 30.8419 39.6 30.0555 39.6ZM15.8158 39.6H4.42397C3.63754 39.6 3 39.0628 3 38.4V19.2C3 18.5373 3.63754 18 4.42397 18H11.5438C13.9031 18 15.8158 19.6118 15.8158 21.6V39.6ZM15.8158 39.6H18.6637V42H15.8158V39.6Z" fill="white"/>
</g>
<defs>
<filter id="filter0_d_18_90" x="40.3195" y="12.6" width="195.992" height="37.8" filterUnits="userSpaceOnUse" color-interpolation-filters="sRGB">
<feFlood flood-opacity="0" result="BackgroundImageFix"/>
<feColorMatrix in="SourceAlpha" type="matrix" values="0 0 0 0 0 0 0 0 0 0 0 0 0 0 0 0 0 0 127 0" result="hardAlpha"/>
<feOffset dy="4"/>
<feGaussianBlur stdDeviation="1.5"/>
<feComposite in2="hardAlpha" operator="out"/>
<feColorMatrix type="matrix" values="0 0 0 0 0 0 0 0 0 0 0 0 0 0 0 0 0 0 0.25 0"/>
<feBlend mode="normal" in2="BackgroundImageFix" result="effect1_dropShadow_18_90"/>
<feBlend mode="normal" in="SourceGraphic" in2="effect1_dropShadow_18_90" result="shape"/>
</filter>
<filter id="filter1_d_18_90" x="0" y="18" width="34.4795" height="31" filterUnits="userSpaceOnUse" color-interpolation-filters="sRGB">
<feFlood flood-opacity="0" result="BackgroundImageFix"/>
<feColorMatrix in="SourceAlpha" type="matrix" values="0 0 0 0 0 0 0 0 0 0 0 0 0 0 0 0 0 0 127 0" result="hardAlpha"/>
<feOffset dy="4"/>
<feGaussianBlur stdDeviation="1.5"/>
<feComposite in2="hardAlpha" operator="out"/>
<feColorMatrix type="matrix" values="0 0 0 0 0 0 0 0 0 0 0 0 0 0 0 0 0 0 0.25 0"/>
<feBlend mode="normal" in2="BackgroundImageFix" result="effect1_dropShadow_18_90"/>
<feBlend mode="normal" in="SourceGraphic" in2="effect1_dropShadow_18_90" result="shape"/>
</filter>
</defs>
</svg>
